<?xml version="1.0" encoding="utf-8"?>
<!-- Generator: Adobe Illustrator 28.0.0, SVG Export Plug-In . SVG Version: 6.00 Build 0)  -->
<svg version="1.1" id="Layer_1" xmlns="http://www.w3.org/2000/svg" xmlns:xlink="http://www.w3.org/1999/xlink" x="0px" y="0px"
	 viewBox="0 0 60 60" style="enable-background:new 0 0 60 60;" xml:space="preserve">
<style type="text/css">
	.st0{fill:#ACBFD0;}
</style>
<rect x="12.5" y="10" class="st0" width="35" height="40"/>
<path d="M47.5,5h-35c-3,0-5,2-5,5v40c0,3,2,5,5,5h35c3,0,5-2,5-5V10C52.5,7,50.5,5,47.5,5z M12.5,50V10h35v40H12.5z"/>
<path d="M17.5,30h5v5h-5V30z M17.5,40h5v5h-5V40z M27.5,30h5v5h-5V30z M17.5,15h25v10h-25V15z M27.5,40h5v5h-5V40z M37.5,30h5v15h-5
	V30z"/>
</svg>
