<?xml version="1.0" encoding="utf-8"?>
<!-- Generator: Adobe Illustrator 28.0.0, SVG Export Plug-In . SVG Version: 6.00 Build 0)  -->
<svg version="1.1" id="Layer_1" xmlns="http://www.w3.org/2000/svg" xmlns:xlink="http://www.w3.org/1999/xlink" x="0px" y="0px"
	 viewBox="0 0 12 12" style="enable-background:new 0 0 12 12;" xml:space="preserve">
<style type="text/css">
	.st0{fill:#ACBFD0;}
</style>
<rect x="2.5" y="2" class="st0" width="7" height="8"/>
<path d="M9.5,1h-7c-0.6,0-1,0.4-1,1v8c0,0.6,0.4,1,1,1h7c0.6,0,1-0.4,1-1V2C10.5,1.4,10.1,1,9.5,1z M2.5,10V2h7l0,8H2.5z"/>
<path d="M3.5,6h1v1h-1V6z M3.5,8h1v1h-1V8z M5.5,6h1v1h-1V6z M3.5,3h5v2h-5V3z M5.5,8h1v1h-1V8z M7.5,6h1v3h-1V6z"/>
</svg>
